<?xml version="1.0" encoding="UTF-8" standalone="no"?>
<svg
   xmlns:dc="http://purl.org/dc/elements/1.1/"
   xmlns:cc="http://creativecommons.org/ns#"
   xmlns:rdf="http://www.w3.org/1999/02/22-rdf-syntax-ns#"
   xmlns:svg="http://www.w3.org/2000/svg"
   xmlns="http://www.w3.org/2000/svg"
   xmlns:sodipodi="http://sodipodi.sourceforge.net/DTD/sodipodi-0.dtd"
   xmlns:inkscape="http://www.inkscape.org/namespaces/inkscape"
   class="icon icon-tabler icon-tabler-photo"
   width="37"
   height="37"
   viewBox="0 0 37 37"
   version="1.1"
   id="svg3814"
   style="fill:none;stroke:currentColor;stroke-width:2;stroke-linecap:round;stroke-linejoin:round"
   inkscape:version="0.92.5 (2060ec1f9f, 2020-04-08)">
  <metadata
     id="metadata3820">
    <rdf:RDF>
      <cc:Work
         rdf:about="">
        <dc:format>image/svg+xml</dc:format>
        <dc:type
           rdf:resource="http://purl.org/dc/dcmitype/StillImage" />
        <dc:title></dc:title>
      </cc:Work>
    </rdf:RDF>
  </metadata>
  <defs
     id="defs3818" />
  <sodipodi:namedview
     pagecolor="#ffffff"
     bordercolor="#666666"
     borderopacity="1"
     objecttolerance="10"
     gridtolerance="10"
     guidetolerance="10"
     id="namedview3816"
     showgrid="true"
     inkscape:zoom="12.49222"
     inkscape:cx="25.639635"
     inkscape:cy="21.530552"
     inkscape:window-x="0"
     inkscape:window-y="25"
     inkscape:window-maximized="1"
     inkscape:current-layer="svg3814">
    <inkscape:grid
       type="xygrid"
       id="grid3973" />
  </sodipodi:namedview>
  <path
     d="M 0.08004982,15.9606 H 24.08005 v 24 H 0.08004982 Z"
     id="path3804"
     inkscape:connector-curvature="0"
     style="fill:none;stroke:none" />
  <line
     x1="29.720448"
     y1="22.919952"
     x2="29.73045"
     y2="22.919952"
     id="line3806" />
  <rect
     x="18.720446"
     y="18.919952"
     width="16"
     height="16"
     rx="3"
     id="rect3808" />
  <path
     d="m 18.72045,29.91995 4,-4 a 3,5 0 0 1 3,0 l 5,5"
     id="path3810"
     inkscape:connector-curvature="0" />
  <path
     d="m 28.72045,28.91995 1,-1 a 3,5 0 0 1 3,0 l 2,2"
     id="path3812"
     inkscape:connector-curvature="0" />
  <line
     style="fill:none;stroke:currentColor;stroke-width:2;stroke-linecap:round;stroke-linejoin:round"
     x1="13.177538"
     y1="6.0431423"
     x2="13.18754"
     y2="6.0431423"
     id="line3806-3" />
  <rect
     style="fill:none;stroke:currentColor;stroke-width:2;stroke-linecap:round;stroke-linejoin:round"
     x="2.1775372"
     y="2.0431409"
     width="16"
     height="16"
     rx="3"
     id="rect3808-6" />
  <path
     style="fill:none;stroke:currentColor;stroke-width:2;stroke-linecap:round;stroke-linejoin:round"
     d="m 2.1775386,13.043142 4,-4.0000044 a 3,5 0 0 1 3,0 l 4.9999984,5.0000044"
     id="path3810-7"
     inkscape:connector-curvature="0" />
  <path
     style="fill:none;stroke:currentColor;stroke-width:2;stroke-linecap:round;stroke-linejoin:round"
     d="m 12.177537,12.043142 1,-1 a 3,5 0 0 1 3,0 l 2,2"
     id="path3812-5"
     inkscape:connector-curvature="0" />
  <path
     inkscape:connector-curvature="0"
     d="m 28.219029,12.863285 v -0.875 c 0,-3.3830014 -2.686,-6.1250014 -6,-6.1250014"
     id="path3889" />
  <path
     inkscape:connector-curvature="0"
     d="m 26.243886,13.174679 2,2 2,-2"
     id="path3887" />
  <path
     inkscape:connector-curvature="0"
     d="m 9.1236122,21.821045 v 0.875 c 0,3.383 2.6859978,6.125 5.9999978,6.125"
     id="path3881" />
  <path
     inkscape:connector-curvature="0"
     d="m 7.1236078,23.821045 2.0000044,-2 1.9999978,2"
     id="path3891" />
</svg>
